<svg xmlns="http://www.w3.org/2000/svg" width="24" height="24" viewBox="0 0 24 24">
  <g id="组_1883" data-name="组 1883" transform="translate(-44 -360)">
    <g id="椭圆_98" data-name="椭圆 98" transform="translate(44 360)" fill="#fff" stroke="#707070" stroke-width="1">
      <circle cx="12" cy="12" r="12" stroke="none"/>
      <circle cx="12" cy="12" r="11.5" fill="none"/>
    </g>
    <path id="路径_801" data-name="路径 801" d="M368.952,0a12,12,0,1,0,12,12A12.015,12.015,0,0,0,368.952,0Zm3.219,13.951.734,3.86-3.511-1.766a.789.789,0,0,0-.328-.078.779.779,0,0,0-.356.093l-3.44,1.894.6-3.881a.716.716,0,0,0-.228-.648l-2.87-2.692,3.881-.641a.716.716,0,0,0,.548-.413l1.674-3.554,1.8,3.49a.764.764,0,0,0,.563.4l3.9.491L372.37,13.3a.764.764,0,0,0-.2.655Z" transform="translate(-312.952 360)" fill="#ec6a25"/>
  </g>
</svg>
