<svg xmlns="http://www.w3.org/2000/svg" width="24.01" height="24" viewBox="0 0 24.01 24">
  <g id="组_1948" data-name="组 1948" transform="translate(-39.99 -360)">
    <rect id="矩形_1212" data-name="矩形 1212" width="24" height="24" transform="translate(40 360)" fill="none"/>
    <path id="路径_809" data-name="路径 809" d="M21.108,67.51H22.5a1.5,1.5,0,0,1,1.5,1.5v7.5a1.5,1.5,0,0,1-1.5,1.5H19.764l-6.276-9.072-.732-1.032L8.292,69.97a1.527,1.527,0,0,1-.924.108C6.012,69.8,5.556,69.334,6,68.65c.432-.66,2.28-1.98,5.544-3.984a1.806,1.806,0,0,1,.264-.132c1.368-.648,2.94-.408,4.692.7a23.86,23.86,0,0,0,4.608,2.28ZM1.02,77.938A1.5,1.5,0,0,1,0,76.51v-7.5a1.5,1.5,0,0,1,1.5-1.5H4.944a1.92,1.92,0,0,0-.636,1.5,1.947,1.947,0,0,0,.72,1.464,4.009,4.009,0,0,0,3.912.648l3.372-1.236,2.364,3.42a1.139,1.139,0,0,1,.192.228l4.152,6a1.479,1.479,0,0,1,.216,1.224,1.5,1.5,0,0,1-.792.972L11.82,85.006a1.421,1.421,0,0,1-.96.12l.24-.252a3,3,0,0,0,0-4.212L6.3,75.8a2.231,2.231,0,0,0-3.192,0Zm4.7-.648L9.984,81.6a1.519,1.519,0,0,1,.384,1.44l-.216.816a1.157,1.157,0,0,1-1.8.636L2.88,80.458a1.541,1.541,0,0,1-.612-1.092A1.491,1.491,0,0,1,2.7,78.19l.9-.912a1.488,1.488,0,0,1,1.068-.444,1.522,1.522,0,0,1,1.056.456Zm0,0" transform="translate(39.99 297.33)" fill="#ec6a25"/>
  </g>
</svg>
