<svg xmlns="http://www.w3.org/2000/svg" width="24" height="24" viewBox="0 0 24 24">
  <g id="组_1954" data-name="组 1954" transform="translate(-40 -360)">
    <g id="组_1948" data-name="组 1948">
      <rect id="矩形_1212" data-name="矩形 1212" width="24" height="24" transform="translate(40 360)" fill="none"/>
    </g>
    <g id="组_1953" data-name="组 1953" transform="translate(-22.959 242.231)">
      <path id="路径_810" data-name="路径 810" d="M557.208,404.708a2.046,2.046,0,0,0-.608,1.456v.821a2.074,2.074,0,0,0,2.063,2.063h7.167V404.1h-7.167A2.041,2.041,0,0,0,557.208,404.708Zm2.3.949a.917.917,0,1,1-.917.917A.917.917,0,0,1,559.507,405.657Z" transform="translate(-480.623 -276.805)" fill="#ec6a25"/>
      <path id="路径_811" data-name="路径 811" d="M82.415,120.8H67.495a2.8,2.8,0,0,0-2.795,2.795v12.348a2.8,2.8,0,0,0,2.795,2.795H82.413a2.8,2.8,0,0,0,2.795-2.795v-2.554H78.041a3.219,3.219,0,0,1-3.21-3.21v-.821a3.219,3.219,0,0,1,3.21-3.21h7.167v-2.554a2.8,2.8,0,0,0-2.792-2.795Z" fill="#ec6a25"/>
    </g>
  </g>
</svg>
