<svg xmlns="http://www.w3.org/2000/svg" width="20" height="17.201" viewBox="0 0 20 17.201">
  <path id="路径_808" data-name="路径 808" d="M84,133.475V128.94a1.7,1.7,0,0,0-1.723-1.671H74c-2.583,0-5.134,0-7.712-.037H65.7a1.263,1.263,0,0,0-.374.037A1.649,1.649,0,0,0,64,128.917v4.5a1.7,1.7,0,0,0,1.766,1.728H82.277A1.654,1.654,0,0,0,84,133.475ZM79.841,130.7v1.045H70.784V130.7Zm-12.735.58a.7.7,0,1,1,.7.658A.677.677,0,0,1,67.107,131.282ZM84,142.763v-4.536a1.7,1.7,0,0,0-1.723-1.67H74c-2.583,0-5.134-.006-7.712-.039H65.7a1.215,1.215,0,0,0-.374.039A1.65,1.65,0,0,0,64,138.2v4.5a1.7,1.7,0,0,0,1.766,1.729H82.277A1.656,1.656,0,0,0,84,142.763Zm-4.159-2.771v1.045H70.784v-1.045Zm-12.735.579a.7.7,0,1,1,.7.659A.678.678,0,0,1,67.107,140.571Z" transform="translate(-64 -127.232)" fill="#fff" opacity="0.5"/>
</svg>
